<svg width="124" height="25" viewBox="0 0 124 25" fill="none" xmlns="http://www.w3.org/2000/svg">
<path d="M4.75 1.25V24H0.453125V1.25H4.75ZM11.2656 1.25H14.9844L21.2031 18.375L27.4062 1.25H31.1406L22.6875 24H19.7031L11.2656 1.25ZM9.39062 1.25H13.0312L13.6875 16.9844V24H9.39062V1.25ZM29.3594 1.25H33.0156V24H28.7188V16.9844L29.3594 1.25ZM55.8125 12.0469V13.2188C55.8125 14.9375 55.5833 16.4844 55.125 17.8594C54.6667 19.224 54.0156 20.3854 53.1719 21.3438C52.3281 22.3021 51.3229 23.0365 50.1562 23.5469C48.9896 24.0573 47.6927 24.3125 46.2656 24.3125C44.8594 24.3125 43.5677 24.0573 42.3906 23.5469C41.224 23.0365 40.2135 22.3021 39.3594 21.3438C38.5052 20.3854 37.8438 19.224 37.375 17.8594C36.9062 16.4844 36.6719 14.9375 36.6719 13.2188V12.0469C36.6719 10.3177 36.9062 8.77083 37.375 7.40625C37.8438 6.04167 38.5 4.88021 39.3438 3.92188C40.1875 2.95312 41.1927 2.21354 42.3594 1.70312C43.5365 1.19271 44.8281 0.9375 46.2344 0.9375C47.6615 0.9375 48.9583 1.19271 50.125 1.70312C51.2917 2.21354 52.2969 2.95312 53.1406 3.92188C53.9948 4.88021 54.651 6.04167 55.1094 7.40625C55.5781 8.77083 55.8125 10.3177 55.8125 12.0469ZM51.4688 13.2188V12.0156C51.4688 10.776 51.3542 9.6875 51.125 8.75C50.8958 7.80208 50.5573 7.00521 50.1094 6.35938C49.6615 5.71354 49.1094 5.22917 48.4531 4.90625C47.7969 4.57292 47.0573 4.40625 46.2344 4.40625C45.401 4.40625 44.6615 4.57292 44.0156 4.90625C43.3802 5.22917 42.8385 5.71354 42.3906 6.35938C41.9427 7.00521 41.599 7.80208 41.3594 8.75C41.1302 9.6875 41.0156 10.776 41.0156 12.0156V13.2188C41.0156 14.4479 41.1302 15.5365 41.3594 16.4844C41.599 17.4323 41.9427 18.2344 42.3906 18.8906C42.849 19.5365 43.401 20.026 44.0469 20.3594C44.6927 20.6927 45.4323 20.8594 46.2656 20.8594C47.099 20.8594 47.8385 20.6927 48.4844 20.3594C49.1302 20.026 49.6719 19.5365 50.1094 18.8906C50.5573 18.2344 50.8958 17.4323 51.125 16.4844C51.3542 15.5365 51.4688 14.4479 51.4688 13.2188ZM67.1094 19.5469L72.7812 1.25H77.5469L69.5156 24H66.3438L67.1094 19.5469ZM61.875 1.25L67.5156 19.5469L68.3281 24H65.125L57.125 1.25H61.875ZM94.9688 20.625V24H82.875V20.625H94.9688ZM84.1875 1.25V24H79.8906V1.25H84.1875ZM93.3906 10.6406V13.9375H82.875V10.6406H93.3906ZM94.9219 1.25V4.64062H82.875V1.25H94.9219ZM102.531 1.25V24H98.2344V1.25H102.531ZM119.078 18.0938C119.078 17.6562 119.01 17.2656 118.875 16.9219C118.75 16.5677 118.516 16.25 118.172 15.9688C117.839 15.6771 117.365 15.3958 116.75 15.125C116.146 14.8438 115.365 14.5521 114.406 14.25C113.344 13.9167 112.354 13.5417 111.438 13.125C110.521 12.7083 109.714 12.224 109.016 11.6719C108.328 11.1198 107.792 10.4844 107.406 9.76562C107.021 9.03646 106.828 8.19271 106.828 7.23438C106.828 6.29688 107.026 5.44271 107.422 4.67188C107.828 3.90104 108.401 3.23958 109.141 2.6875C109.88 2.125 110.75 1.69271 111.75 1.39062C112.76 1.08854 113.875 0.9375 115.094 0.9375C116.781 0.9375 118.24 1.24479 119.469 1.85938C120.708 2.47396 121.667 3.30729 122.344 4.35938C123.021 5.41146 123.359 6.59375 123.359 7.90625H119.078C119.078 7.19792 118.927 6.57292 118.625 6.03125C118.333 5.48958 117.885 5.0625 117.281 4.75C116.688 4.4375 115.938 4.28125 115.031 4.28125C114.156 4.28125 113.427 4.41146 112.844 4.67188C112.271 4.93229 111.839 5.28646 111.547 5.73438C111.266 6.18229 111.125 6.68229 111.125 7.23438C111.125 7.65104 111.224 8.02604 111.422 8.35938C111.62 8.68229 111.917 8.98958 112.312 9.28125C112.708 9.5625 113.198 9.82812 113.781 10.0781C114.375 10.3177 115.062 10.5573 115.844 10.7969C117.094 11.1719 118.188 11.5885 119.125 12.0469C120.073 12.5052 120.859 13.026 121.484 13.6094C122.12 14.1927 122.594 14.849 122.906 15.5781C123.229 16.3073 123.391 17.1354 123.391 18.0625C123.391 19.0417 123.198 19.9167 122.812 20.6875C122.427 21.4583 121.875 22.1146 121.156 22.6562C120.438 23.1979 119.573 23.6094 118.562 23.8906C117.562 24.1719 116.443 24.3125 115.203 24.3125C114.099 24.3125 113.005 24.1667 111.922 23.875C110.849 23.5729 109.875 23.125 109 22.5312C108.125 21.9271 107.427 21.1667 106.906 20.25C106.385 19.3229 106.125 18.2396 106.125 17H110.438C110.438 17.7188 110.552 18.3333 110.781 18.8438C111.021 19.3438 111.354 19.7552 111.781 20.0781C112.219 20.3906 112.729 20.6198 113.312 20.7656C113.896 20.9115 114.526 20.9844 115.203 20.9844C116.078 20.9844 116.797 20.8646 117.359 20.625C117.932 20.375 118.359 20.0312 118.641 19.5938C118.932 19.1562 119.078 18.6562 119.078 18.0938Z" fill="white"/>
</svg>
